# Exported from ProBuilder
# http://www.procore3d.com/probuilder
# 11/17/2019 3:13:30 PM

mtllib ./LisboaVivaCard.mtl
o LisboaVivaCard

g Cube
v 3.177 0.0487 -2.477
v 3.027 0.0487 -2.477
v 3.177 0.0537 -2.477
v 3.027 0.0537 -2.477
v 3.027 0.0487 -2.477
v 3.027 0.0487 -2.577
v 3.027 0.0537 -2.477
v 3.027 0.0537 -2.577
v 3.027 0.0487 -2.577
v 3.177 0.0487 -2.577
v 3.027 0.0537 -2.577
v 3.177 0.0537 -2.577
v 3.177 0.0487 -2.577
v 3.177 0.0487 -2.477
v 3.177 0.0537 -2.577
v 3.177 0.0537 -2.477
v 3.177 0.0537 -2.477
v 3.027 0.0537 -2.477
v 3.177 0.0537 -2.577
v 3.027 0.0537 -2.577
v 3.177 0.0487 -2.577
v 3.027 0.0487 -2.577
v 3.177 0.0487 -2.477
v 3.027 0.0487 -2.477

vn 0 0 1
vn 0 0 1
vn 0 0 1
vn 0 0 1
vn -1 0 0
vn -1 0 0
vn -1 0 0
vn -1 0 0
vn 0 0 -1
vn 0 0 -1
vn 0 0 -1
vn 0 0 -1
vn 1 0 0
vn 1 0 0
vn 1 0 0
vn 1 0 0
vn 0 1 0
vn 0 1 0
vn 0 1 0
vn 0 1 0
vn 0 -1 0
vn 0 -1 0
vn 0 -1 0
vn 0 -1 0

vt 0 0
vt -0.15 0
vt 0 0.005
vt -0.15 0.005
vt 0 0
vt -0.1 0
vt 0 0.005
vt -0.1 0.005
vt 0.15 0
vt 0 0
vt 0.15 0.005
vt 0 0.005
vt 0.1 0
vt 0 0
vt 0.1 0.005
vt 0 0.005
vt 0 0
vt 0.15 0
vt 0 -0.1
vt 0.15 -0.1
vt 0 -0.1
vt -0.15 -0.1
vt 0 0
vt -0.15 0

g Cube
usemtl Mat_Green_Grid_256
f 3/3/3 4/4/4 2/2/2 1/1/1
f 7/7/7 8/8/8 6/6/6 5/5/5
f 11/11/11 12/12/12 10/10/10 9/9/9
f 15/15/15 16/16/16 14/14/14 13/13/13
f 19/19/19 20/20/20 18/18/18 17/17/17
f 23/23/23 24/24/24 22/22/22 21/21/21

